<svg width="554" height="168" viewBox="0 0 554 168" fill="none" xmlns="http://www.w3.org/2000/svg">
<path fill-rule="evenodd" clip-rule="evenodd" d="M147.104 145.635C185.427 145.635 216.493 116.527 216.493 80.6192C216.493 44.7122 185.427 15.6038 147.104 15.6038C108.782 15.6038 77.7154 44.7122 77.7154 80.6192C77.7154 86.2511 78.4798 91.7156 79.9164 96.9272C80.7324 94.4202 81.4302 91.4711 81.9881 88.0549L81.9914 88.0331L81.9953 88.0118C82.6343 84.3069 82.9562 80.4944 82.9562 76.5716C82.9562 74.2404 82.8363 71.4203 82.586 68.0931C82.491 67.0544 82.4405 66.0506 82.4405 65.0873C82.4405 58.6294 86.2353 52.8868 91.9829 47.8892C93.3679 46.6384 94.7501 45.5393 96.1018 44.7191C97.3191 43.9803 99.2193 43.022 101.474 43.022C101.827 43.022 102.169 43.0434 102.501 43.084C113.476 31.642 129.393 24.4459 147.104 24.4459C180.215 24.4459 207.056 49.5955 207.056 80.6192C207.056 111.643 180.215 136.793 147.104 136.793C126.297 136.793 107.966 126.861 97.2153 111.781C95.5067 114.134 93.5944 116.407 91.4844 118.602C91.3556 118.738 91.2263 118.873 91.0964 119.008C103.722 135.152 124.107 145.635 147.104 145.635ZM82.6104 104.653C84.0781 108.107 85.8528 111.416 87.9028 114.55C90.2415 112.057 92.2898 109.473 94.0479 106.799C90.7827 101.002 88.5684 94.6059 87.6419 87.8318C87.5886 88.1694 87.5331 88.5059 87.4754 88.8419C86.8303 92.7907 85.9916 96.2562 84.9596 99.2381C84.2785 101.291 83.4952 103.096 82.6104 104.653ZM147.104 132.632C127.121 132.632 109.605 122.739 99.8294 107.895C103.658 101.829 106.602 94.6954 108.735 86.5799L108.741 86.557L108.747 86.5341C110.572 79.3064 111.476 71.7709 111.476 63.9389C111.476 58.5858 111.11 54.108 110.178 50.818C109.718 49.1924 109.004 47.4245 107.764 45.9658C107.455 45.6024 107.107 45.2533 106.722 44.9305C116.844 34.8799 131.192 28.6069 147.104 28.6069C177.762 28.6069 202.615 51.8936 202.615 80.6192C202.615 109.345 177.762 132.632 147.104 132.632ZM105.925 63.9389C105.925 55.6164 104.989 50.5997 103.117 48.888C95.8908 57.6688 91.5932 68.6741 91.5932 80.6192C91.5932 88.4149 93.4239 95.8105 96.7041 102.448C99.4291 97.5139 101.643 91.8097 103.345 85.3357C105.065 78.5257 105.925 71.3933 105.925 63.9389ZM87.9916 65.0873C87.9916 60.7063 90.5329 56.2863 95.6161 51.8265C92.1339 57.2818 89.6109 63.3366 88.2664 69.7861C88.2231 69.1068 88.1748 68.4067 88.1204 67.6864C88.0344 66.7595 87.9916 65.893 87.9916 65.0873ZM146.826 72.9365H138.468V76.8993V81.1487V84.9207H146.826C149.034 84.9207 150.919 85.239 152.482 85.8751C154.079 86.5117 155.284 87.5306 156.1 88.9308C156.949 90.3315 157.374 92.2097 157.374 94.5648C157.374 96.1246 156.983 97.5415 156.202 98.8142C155.42 100.087 154.282 101.106 152.787 101.87C151.327 102.602 149.543 102.968 147.437 102.968C145.739 102.968 144.159 102.618 142.698 101.918C141.237 101.218 140.065 100.279 139.182 99.1008C138.333 97.8915 137.908 96.5543 137.908 95.0901H120.684C120.684 98.6551 121.449 101.727 122.977 104.305C124.54 106.852 126.596 108.952 129.144 110.608C131.691 112.231 134.511 113.441 137.602 114.236C140.694 115 143.785 115.382 146.877 115.382C150.817 115.382 154.469 114.936 157.832 114.046C161.196 113.122 164.134 111.786 166.648 110.035C169.162 108.284 171.116 106.135 172.508 103.589C173.901 101.042 174.597 98.1459 174.597 94.8992C174.597 92.0027 174.003 89.4405 172.814 87.2123C171.625 84.9524 169.926 83.0581 167.718 81.5305C166.044 80.3722 164.126 79.4334 161.963 78.714C163.665 77.963 165.209 77.0715 166.597 76.0396C168.737 74.448 170.402 72.602 171.591 70.5013C172.78 68.4005 173.374 66.1562 173.374 63.7693C173.374 59.4403 172.253 55.8114 170.011 52.8831C167.803 49.9228 164.712 47.6947 160.737 46.1986C156.762 44.6708 152.142 43.9068 146.877 43.9068C142.46 43.9068 138.333 44.6708 134.494 46.1986C130.689 47.6947 127.615 49.8591 125.271 52.6922C122.961 55.4931 121.806 58.8671 121.806 62.8144H139.029C139.029 61.4454 139.437 60.2834 140.252 59.3285C141.101 58.3735 142.171 57.6417 143.462 57.1325C144.753 56.5911 146.078 56.3206 147.437 56.3206C149.441 56.3206 151.089 56.6868 152.38 57.4191C153.671 58.1192 154.622 59.058 155.234 60.2361C155.879 61.4137 156.202 62.7025 156.202 64.1032C156.202 65.9174 155.862 67.4934 155.183 68.8301C154.503 70.1351 153.467 71.1535 152.074 71.8858C150.715 72.5859 148.966 72.9365 146.826 72.9365Z" fill="white"/>
<path d="M47.5438 89.6881H47.2857C43.9742 95.7324 40.5337 101.273 36.9642 106.31C32.7065 112.274 29.1155 116.686 26.191 119.547C24.5998 120.957 22.6215 122.207 20.2561 123.295C17.8908 124.342 15.848 124.866 14.1277 124.866C13.6976 124.866 13.117 124.745 12.3859 124.504C11.6978 124.222 11.1387 123.839 10.7086 123.355C8.51529 121.139 6.75204 115.457 5.41884 106.31C4.08564 97.1222 3.41904 85.9806 3.41904 72.8844C3.41904 62.2464 4.25766 55.1742 5.93492 51.6685C6.62303 50.1776 7.61218 48.9486 8.90237 47.9814C10.1926 47.0143 12.1064 46.0674 14.6438 45.1406C16.8801 44.2943 19.181 43.5891 21.5463 43.025C23.9547 42.4609 25.8469 42.1788 27.2232 42.1788C28.4274 42.1788 29.3735 42.4609 30.0616 43.025C30.7928 43.5891 31.1583 44.3749 31.1583 45.3823C31.1583 45.7853 31.0723 46.3293 30.9002 47.0143C29.9971 50.7619 29.1585 56.0408 28.3844 62.8507C27.8253 67.3639 27.4382 71.0307 27.2232 73.8514C27.0081 76.672 26.8146 80.5204 26.6426 85.3965C26.4706 90.2722 26.363 95.0875 26.3201 99.8425L26.5781 100.084C28.5134 97.7469 30.5777 94.9465 32.7711 91.6828C33.5452 90.4735 34.2978 89.3453 35.0289 88.2978C35.76 87.2497 36.5556 86.0207 37.4157 84.6106C39.394 81.3063 41.1573 78.0826 42.7055 74.9395C43.4797 73.4888 44.1678 72.0179 44.7699 70.5272C51.2209 57.068 55.7581 49.2709 58.3815 47.1352C59.5855 46.1278 61.7788 45.1809 64.9612 44.2943C68.187 43.3675 71.0686 42.9041 73.606 42.9041C75.2402 42.9041 76.5947 43.2668 77.6699 43.9921C78.7452 44.6771 79.2825 45.6039 79.2825 46.7726C79.2825 47.8202 78.7019 49.9157 77.5411 53.0589C75.3046 59.1433 73.4766 65.792 72.0578 73.0051C70.6811 80.2182 69.9933 86.6454 69.9933 92.2871C69.9933 103.771 72.3803 109.514 77.1537 109.514C78.5298 109.514 79.9276 108.546 81.347 106.612C82.7664 104.678 83.9704 102.22 84.9596 99.2381C85.9916 96.2562 86.8304 92.7906 87.4754 88.8418C88.1637 84.8525 88.5073 80.7622 88.5073 76.5716C88.5073 74.0729 88.3786 71.1113 88.1204 67.6863C88.0344 66.7595 87.9916 65.8929 87.9916 65.0873C87.9916 60.6548 90.5934 56.1817 95.797 51.6685C98.3345 49.3717 100.227 48.2232 101.474 48.2232C104.442 48.2232 105.925 53.4615 105.925 63.9388C105.925 71.3933 105.065 78.5257 103.345 85.3357C101.194 93.5162 98.2273 100.467 94.4426 106.189C92.4642 109.292 90.0988 112.274 87.3466 115.135C84.6371 117.996 81.9493 120.293 79.2825 122.025C75.8852 124.241 72.2726 125.35 68.4451 125.35C61.3919 125.35 56.145 122.791 52.7046 117.673C49.264 112.516 47.5438 104.557 47.5438 93.7981V89.6881Z" fill="white"/>
<path d="M266.119 100.441C262.722 103.465 259.546 105.677 256.59 107.077C253.668 108.446 250.713 109.13 247.723 109.13C244.156 109.13 241.099 108.334 238.551 106.743C236.003 105.152 234.05 102.86 232.691 99.8679C231.366 96.8756 230.704 93.3424 230.704 89.2683C230.704 84.207 232.113 78.987 234.933 73.6079C237.786 68.1965 241.608 63.1992 246.398 58.6153C251.188 54.032 256.403 50.3714 262.043 47.634C267.682 44.8965 273.168 43.5278 278.502 43.5278C287.062 43.5278 291.343 47.0451 291.343 54.0798C291.343 56.8173 290.545 59.4751 288.948 62.0533C287.385 64.6316 285.296 66.7007 282.68 68.26C280.064 69.8198 277.296 70.5995 274.374 70.5995C273.185 70.5995 272.591 70.2016 272.591 69.4058C272.591 69.1832 272.794 68.6423 273.202 67.7825C274.119 66.0957 274.816 64.2654 275.291 62.2921C275.835 59.4907 276.107 57.3421 276.107 55.8462C276.107 53.1722 275.767 51.8356 275.088 51.8356C273.491 51.8356 271.248 52.9018 268.361 55.0348C265.508 57.1673 263.163 59.4907 261.329 62.0055C259.664 64.202 258.118 66.812 256.692 69.836C255.299 72.8594 254.195 75.9152 253.379 79.0031C252.598 82.0906 252.208 84.9232 252.208 87.5014C252.208 89.9528 252.768 91.974 253.889 93.5656C255.01 95.1249 256.471 95.9051 258.272 95.9051C261.363 95.9051 264.845 92.2283 268.718 84.8759C269.941 82.8385 270.756 81.5491 271.164 81.0082C271.605 80.435 272.217 79.9258 272.998 79.4806C275.104 78.2391 277.754 77.1406 280.947 76.1862C284.175 75.199 286.672 74.7059 288.438 74.7059C290.511 74.7059 291.547 75.6764 291.547 77.618C291.547 77.7772 291.444 78.4778 291.241 79.7194C288.829 89.0457 285.907 97.5762 282.476 105.311C279.045 113.046 275.716 118.552 272.489 121.831C270.994 123.327 268.785 124.568 265.864 125.555C262.942 126.542 259.953 127.035 256.896 127.035C254.382 127.035 251.817 126.637 249.201 125.841C246.619 125.046 244.496 124.027 242.831 122.786C241.167 121.545 240.334 120.319 240.334 119.109C240.334 118.314 240.81 117.406 241.762 116.388C242.712 115.369 244.004 114.351 245.634 113.332C248.216 111.709 249.932 110.897 250.781 110.897C251.664 110.897 252.904 111.804 254.501 113.618C256.437 115.719 258.493 117.454 260.666 118.823C261.855 116.213 262.993 113.014 264.081 109.226C265.202 105.438 265.881 102.51 266.119 100.441ZM312.745 94.6635L312.541 95.6185C312.541 96.1594 312.473 96.9396 312.337 97.958C312.201 99.5179 312.015 100.791 311.777 101.778C311.539 102.764 311.182 103.592 310.707 104.26C310.231 104.897 309.585 105.581 308.77 106.313C306.29 108.446 303.793 109.513 301.279 109.513C299.241 109.513 297.729 108.812 296.744 107.412C295.793 106.011 295.317 103.751 295.317 100.632C295.317 98.1489 295.606 95.0932 296.184 91.4648C296.795 87.8042 297.526 84.5253 298.375 81.6287L298.782 80.3877C298.782 80.1968 298.885 79.7989 299.088 79.194C300.345 74.865 301.5 71.6658 302.553 69.5972C303.606 67.4964 304.88 65.8092 306.375 64.5359C307.7 63.5492 309.195 63.0556 310.859 63.0556C313.271 63.0556 314.732 64.4246 315.242 67.162C315.717 66.7802 316.176 66.3345 316.618 65.8253C317.603 64.7112 318.367 63.9788 318.911 63.6288C319.454 63.247 320.083 63.0556 320.796 63.0556C323.718 63.0556 325.179 65.7613 325.179 71.1727C325.179 74.1327 324.839 76.9975 324.159 79.7667C323.48 82.5363 322.614 84.7963 321.56 86.5465C320.542 88.2972 319.523 89.1726 318.503 89.1726C317.382 89.1726 316.821 87.1831 316.821 83.2047C316.821 81.1039 316.686 79.4645 316.414 78.2869C316.176 77.0771 315.786 76.1383 315.242 75.4699C314.223 77.2524 313.56 81.3265 313.255 87.6929C313.017 91.3852 312.847 93.7086 312.745 94.6635ZM363.295 61.1936C368.357 61.1936 370.887 61.7506 370.887 62.8647C370.887 64.138 369.749 64.8225 367.473 64.9177C364.721 65.0768 362.157 65.8092 359.779 67.1141C357.4 68.4191 355.277 70.2016 353.409 72.4615C351.575 74.7215 350.131 77.268 349.078 80.1011C348.059 82.9342 347.549 85.926 347.549 89.0774C347.549 92.5466 348.415 95.348 350.147 97.4805C351.88 99.5813 354.139 100.632 356.925 100.632C359.507 100.632 361.766 99.3904 363.702 96.9074C365.639 94.4248 366.607 91.5282 366.607 88.2176C366.607 85.5125 365.995 82.9816 364.772 80.6264C363.583 78.2391 361.834 76.2335 359.524 74.6102C358.538 73.8784 358.046 73.353 358.046 73.0347C358.046 72.589 358.743 71.9045 360.135 70.9818C361.698 69.9951 363.447 69.1671 365.384 68.4987C367.32 67.8304 368.951 67.4964 370.276 67.4964C371.804 67.4964 373.248 67.8782 374.607 68.6423C376 69.3741 377.223 70.4403 378.276 71.841C379.329 73.21 380.128 74.8011 380.671 76.6158C381.249 78.3982 381.537 80.3081 381.537 82.3449C381.537 85.719 380.858 89.0613 379.499 92.3719C378.14 95.6502 376.357 98.3081 374.149 100.345C371.295 102.924 367.847 105.04 363.804 106.696C359.796 108.319 355.974 109.13 352.339 109.13C348.806 109.13 345.29 108.558 341.791 107.412C338.326 106.266 335.574 104.754 333.536 102.876C330.818 100.329 329.459 96.7165 329.459 92.0374C329.459 88.3451 330.427 84.6527 332.363 80.9604C334.3 77.268 336.916 73.9262 340.211 70.9339C343.54 67.9099 347.192 65.5387 351.167 63.8197C355.176 62.0689 359.218 61.1936 363.295 61.1936ZM413.794 63.1513C416.375 63.247 418.43 63.9471 419.959 65.2521C421.488 66.5571 422.252 68.3078 422.252 70.5043C422.252 72.4142 421.658 74.3397 420.469 76.2813C419.314 78.223 417.836 79.8145 416.036 81.0561C414.269 82.2976 412.486 82.9181 410.685 82.9181C409.632 82.9181 409.105 82.5681 409.105 81.8675C409.105 81.6131 409.309 81.0561 409.717 80.1968C411.042 78.0955 411.704 75.6764 411.704 72.939C411.704 71.5706 411.534 70.8861 411.195 70.8861C410.719 70.8861 410.039 71.4593 409.156 72.6051C408.273 73.7509 407.526 75.1038 406.914 76.6636C405.861 79.1144 404.978 81.7244 404.265 84.4936C403.585 87.2627 403.245 89.6022 403.245 91.5121C403.245 93.6769 403.585 95.3798 404.265 96.6213C404.978 97.8623 405.963 98.4833 407.22 98.4833C408.375 98.4833 409.921 97.9102 411.857 96.7643C413.794 95.6185 415.628 94.2022 417.361 92.5149C418.074 91.6557 418.702 91.2261 419.246 91.2261C420.061 91.2261 420.469 91.6557 420.469 92.5149C420.469 96.4299 418.838 99.9792 415.577 103.162C413.335 105.263 410.753 106.966 407.832 108.271C404.944 109.544 402.345 110.181 400.035 110.181C395.992 110.181 392.629 108.987 389.945 106.6C387.262 104.213 385.92 101.205 385.92 97.5762C385.92 93.9473 386.769 90.1437 388.468 86.1647C390.2 82.1541 392.544 78.3504 395.5 74.7537C398.489 71.1566 401.869 68.1487 405.64 65.7296C408.358 64.0106 411.008 63.1513 413.59 63.1513H413.794ZM443.604 94.377C445.166 93.3903 446.355 92.4036 447.171 91.4169C448.971 89.3479 450.364 86.9766 451.349 84.3027C452.131 82.5519 452.742 80.5942 453.184 78.43C453.625 76.2657 453.846 74.244 453.846 72.3664C453.846 70.6156 453.455 69.7403 452.674 69.7403C451.587 69.7403 449.922 71.9841 447.68 76.4722C446.355 79.1779 445.268 81.8836 444.419 84.5893C443.604 87.2627 443.196 89.5705 443.196 91.5121C443.196 92.181 443.332 93.1354 443.604 94.377ZM443.706 95.9051C444.079 97.815 445.404 98.7694 447.68 98.7694C450.228 98.7694 453.54 97.3692 457.617 94.5678C459.995 92.9445 461.591 92.1331 462.407 92.1331C463.426 92.1331 464.377 92.3875 465.261 92.8967C466.144 93.4064 466.585 93.9312 466.585 94.4727C466.585 95.0453 466.093 95.7933 465.107 96.7165C463.307 98.4038 461.235 100.059 458.891 101.682C456.546 103.274 454.288 104.61 452.113 105.693C449.939 106.743 447.765 107.587 445.591 108.223C443.416 108.828 441.48 109.13 439.782 109.13C435.535 109.13 432.138 108.001 429.59 105.741C427.042 103.449 425.768 100.409 425.768 96.6213C425.768 93.7247 426.431 90.462 427.756 86.8331C429.115 83.173 430.932 79.7511 433.208 76.5679C435.892 72.8438 439.187 69.7403 443.094 67.2577C447.918 64.2654 452.538 62.7696 456.954 62.7696C460.147 62.7696 462.644 63.7245 464.445 65.6339C466.28 67.512 467.197 70.1064 467.197 73.4165C467.197 75.9947 466.466 78.6848 465.006 81.4857C463.579 84.2866 461.455 86.9766 458.636 89.5549C456.326 91.7191 454.05 93.4064 451.808 94.6157C449.599 95.8255 447.663 96.4299 445.998 96.4299C445.251 96.4299 444.487 96.2551 443.706 95.9051ZM487.835 94.6635L487.63 95.6185C487.63 96.1594 487.563 96.9396 487.427 97.958C487.291 99.5179 487.104 100.791 486.866 101.778C486.628 102.764 486.272 103.592 485.796 104.26C485.321 104.897 484.675 105.581 483.86 106.313C481.38 108.446 478.883 109.513 476.369 109.513C474.331 109.513 472.819 108.812 471.834 107.412C470.883 106.011 470.407 103.751 470.407 100.632C470.407 98.1489 470.696 95.0932 471.274 91.4648C471.885 87.8042 472.615 84.5253 473.465 81.6287L473.872 80.3877C473.872 80.1968 473.974 79.7989 474.178 79.194C475.435 74.865 476.59 71.6658 477.643 69.5972C478.696 67.4964 479.97 65.8092 481.465 64.5359C482.79 63.5492 484.284 63.0556 485.949 63.0556C488.361 63.0556 489.822 64.4246 490.332 67.162C490.807 66.7802 491.266 66.3345 491.707 65.8253C492.692 64.7112 493.457 63.9788 494 63.6288C494.544 63.247 495.172 63.0556 495.886 63.0556C498.808 63.0556 500.268 65.7613 500.268 71.1727C500.268 74.1327 499.928 76.9975 499.249 79.7667C498.569 82.5363 497.703 84.7963 496.65 86.5465C495.631 88.2972 494.612 89.1726 493.593 89.1726C492.472 89.1726 491.911 87.1831 491.911 83.2047C491.911 81.1039 491.775 79.4645 491.503 78.2869C491.266 77.0771 490.875 76.1383 490.332 75.4699C489.312 77.2524 488.65 81.3265 488.344 87.6929C488.106 91.3852 487.936 93.7086 487.835 94.6635ZM537.009 76.4722L537.671 74.4193C538.554 71.2361 539.896 68.7853 541.696 67.0663C542.852 65.9844 544.176 65.0929 545.671 64.3929C547.166 63.6923 548.525 63.3422 549.748 63.3422C551.99 63.3422 553.111 64.2337 553.111 66.0162C553.111 66.9071 552.805 68.2917 552.194 70.1699C551.582 72.048 550.767 74.1805 549.748 76.5679C548.763 78.9236 547.591 81.5174 546.232 84.3505C544.907 87.1831 543.429 90.0958 541.799 93.0881C538.843 98.7538 535.853 103.544 532.83 107.46C530.656 110.261 528.448 112.743 526.206 114.908C523.963 117.072 521.602 119.014 519.122 120.733C516.677 122.452 514.35 123.741 512.141 124.6C509.967 125.491 507.962 125.937 506.128 125.937C504.6 125.937 503.835 125.317 503.835 124.075C503.835 123.088 504.073 121.91 504.549 120.542C505.024 119.173 505.686 117.884 506.536 116.674C507.453 115.528 508.608 114.51 510.001 113.618C511.768 112.473 514.366 111.168 517.797 109.703C515.759 106.489 514.214 103.942 513.161 102.064C512.107 100.186 510.952 97.8467 509.696 95.0453C506.909 88.8387 505.517 83.2047 505.517 78.1434C505.517 74.2919 506.026 71.1566 507.045 68.7375C507.962 66.6684 509.644 65.2043 512.09 64.345C514.06 63.6127 515.827 63.247 517.39 63.247C519.598 63.247 521.076 64.0428 521.823 65.6339C522.605 67.1937 523.284 70.8705 523.861 76.6636C524.473 82.8703 525.458 88.9978 526.817 95.0453C527.055 95.9685 527.326 97.2418 527.632 98.8651H527.836C528.754 96.9869 529.756 94.7114 530.842 92.0374C531.182 91.2734 532.371 88.4564 534.41 83.5865C535.565 80.6582 536.431 78.2869 537.009 76.4722Z" fill="white"/>
</svg>
