<svg width="70" height="70" viewBox="0 0 70 70" fill="none" xmlns="http://www.w3.org/2000/svg">
<path d="M28.4355 30.6235V43.7508H41.5648V30.6235H28.4355Z" fill="#FDCE97"/>
<path d="M43.752 18.1182C44.3056 17.7276 44.9504 17.5132 45.5934 17.4838C45.9488 17.4673 46.3024 17.5045 46.6359 17.5926C47.9696 17.9431 49.1649 19.1253 49.2186 20.7413C49.2188 20.7537 49.2188 20.7702 49.2186 20.7826C49.2186 24.1485 46.4682 26.2472 43.753 26.2472L43.752 18.1182Z" fill="#FDCE97"/>
<path d="M32.8123 2.18604C27.3778 2.18604 22.9707 6.59313 22.9707 12.0277V17.4942H47.0311V12.0277C47.0311 6.59313 42.624 2.18604 37.1895 2.18604H32.8123Z" fill="#FF6B6B"/>
<path d="M25.1582 37.188C17.2999 37.188 10.9394 43.5463 10.9395 51.4046V66.7128C10.9372 67.3168 11.4249 67.8084 12.0289 67.8108H57.9707C58.5747 67.8084 59.0625 67.3168 59.0602 66.7128V51.4046C59.0602 43.5463 52.6997 37.1879 44.8414 37.188H39.3748L34.9998 40.467L30.6248 37.188H25.1582Z" fill="#FF6B6B"/>
<path d="M26.25 18.1182C25.6964 17.7276 25.0516 17.5132 24.4086 17.4838C24.0531 17.4673 23.6995 17.5045 23.3661 17.5926C22.0323 17.9431 20.8371 19.1253 20.7834 20.7413C20.7831 20.7537 20.7831 20.7702 20.7834 20.7826C20.7834 24.1485 23.5338 26.2471 26.2489 26.2471L26.25 18.1182Z" fill="#FDCE97"/>
<path d="M25.1582 17.4941V25.1568C25.1582 30.5914 29.5653 34.9984 34.9998 34.9984C40.4344 34.9984 44.8414 30.5914 44.8414 25.1568V17.4941H25.1582Z" fill="#FDD5A6"/>
<path d="M10.9395 61.2485V66.713C10.9372 67.317 11.4249 67.8086 12.0289 67.811H57.9707C58.5747 67.8086 59.0625 67.317 59.0602 66.713V61.2485H10.9395Z" fill="#FDD5A6"/>
<path d="M21.8729 48.1279C20.074 48.1279 18.5938 49.6061 18.5938 51.4049V66.7131C18.5926 67.0032 18.7068 67.2819 18.9111 67.4879C19.1154 67.6938 19.3932 67.81 19.6832 67.8112H50.3082C50.4526 67.8117 50.5956 67.7838 50.7291 67.7288C50.8625 67.6738 50.9838 67.593 51.0859 67.4909C51.188 67.3888 51.2688 67.2675 51.3238 67.134C51.3788 67.0005 51.4068 66.8575 51.4063 66.7131V51.4049C51.4063 49.6061 49.9282 48.1279 48.1293 48.1279H21.8729Z" fill="#E6B57C"/>
<path d="M27.3457 48.1279V57.9696C27.3441 58.2598 27.4578 58.5387 27.6619 58.745L29.8494 60.924C30.277 61.3538 30.9727 61.3538 31.4003 60.924L32.8123 59.5205L34.2244 60.924C34.652 61.3538 35.3477 61.3538 35.7753 60.924L37.1895 59.5205L38.6015 60.924C39.0291 61.3538 39.7248 61.3538 40.1524 60.924L42.3399 58.745C42.5432 58.5383 42.6562 58.2595 42.6539 57.9696V48.1279H27.3457Z" fill="#FDD5A6"/>
<path d="M28.4277 34.999C28.1394 35.0014 27.8638 35.1174 27.6606 35.322L25.4726 37.51C25.1422 37.8432 25.0609 38.3498 25.2708 38.7696L28.5488 45.3337C28.8355 45.9024 29.5456 46.1069 30.0909 45.7777L35.565 42.4997C36.2088 42.112 36.2789 41.2055 35.7023 40.7234L29.1382 35.2493C28.9384 35.0844 28.6867 34.9953 28.4277 34.999Z" fill="#E86262"/>
<path d="M41.548 34.9991C41.2973 35.0014 41.055 35.0897 40.8617 35.2493L34.2976 40.7234C33.721 41.2055 33.791 42.112 34.4348 42.4997L39.909 45.7777C40.4525 46.101 41.1562 45.8972 41.443 45.3336L44.7291 38.7695C44.9369 38.3482 44.8524 37.8412 44.5192 37.51L42.3392 35.322C42.1302 35.1115 41.8446 34.995 41.548 34.9991Z" fill="#E86262"/>
<path d="M34.9995 14.2173C28.194 14.2173 23.5749 16.5181 23.5749 16.5181C23.3392 16.6357 23.1539 16.8344 23.0531 17.0777C22.9522 17.3211 22.9426 17.5926 23.0259 17.8425C23.0259 17.8425 23.3299 18.7878 23.9701 19.7481C24.6103 20.7083 25.7049 21.8715 27.3454 21.8715H42.6536C44.294 21.8715 45.3887 20.7083 46.0288 19.7481C46.669 18.7878 46.9731 17.8425 46.9731 17.8425C47.0564 17.5926 47.0468 17.3211 46.9459 17.0777C46.845 16.8344 46.6597 16.6357 46.424 16.5181C46.424 16.5181 41.805 14.2173 34.9995 14.2173Z" fill="#E86262"/>
</svg>
