<svg width="49" height="50" viewBox="0 0 49 50" fill="none" xmlns="http://www.w3.org/2000/svg">
<g clip-path="url(#clip0_931_145)">
<path d="M44.8723 13.3335H3.10547V45.6252H44.8723V13.3335Z" fill="#FFD15C"/>
<path d="M41.8669 22.2915H26.6426V45.6248H41.8669V22.2915Z" fill="#415A6B"/>
<path d="M40.3641 23.854H28.1445V44.0623H40.3641V23.854Z" fill="#8AD7F8"/>
<path d="M0 10V14.6875C0 17.5 2.10337 19.6875 4.80769 19.6875C7.51202 19.6875 9.61538 17.5 9.61538 14.6875V10H0Z" fill="#F05540"/>
<path d="M9.61523 10V14.6875C9.61523 17.5 11.7186 19.6875 14.4229 19.6875C17.1273 19.6875 19.2306 17.5 19.2306 14.6875V10H9.61523Z" fill="#E8EAE9"/>
<path d="M19.2305 10V14.6875C19.2305 17.5 21.3338 19.6875 24.0382 19.6875C26.7425 19.6875 28.8459 17.5 28.8459 14.6875V10H19.2305Z" fill="#F05540"/>
<path d="M28.8457 10V14.6875C28.8457 17.5 30.9491 19.6875 33.6534 19.6875C36.3577 19.6875 38.4611 17.5 38.4611 14.6875V10H28.8457Z" fill="#E8EAE9"/>
<path d="M38.4619 10V14.6875C38.4619 17.5 40.5653 19.6875 43.2696 19.6875C45.9739 19.6875 48.0773 17.5 48.0773 14.6875V10H38.4619Z" fill="#F05540"/>
<path d="M11.7188 0H3.50558L0 10H9.61538L11.7188 0Z" fill="#F3705A"/>
<path d="M19.9318 0H11.7186L9.61523 10H19.2306L19.9318 0Z" fill="#F3F3F3"/>
<path d="M28.1447 0H19.9316L19.2305 10H28.8459L28.1447 0Z" fill="#F3705A"/>
<path d="M36.3577 0H28.1445L28.8457 10H38.4611L36.3577 0Z" fill="#F3F3F3"/>
<path d="M44.5716 0H36.3584L38.4618 10H48.0771L44.5716 0Z" fill="#F3705A"/>
<path d="M48.0769 45.625H0V50H48.0769V45.625Z" fill="#CED6E0"/>
<path d="M30.0472 35.3124C30.7664 35.3124 31.3493 34.7061 31.3493 33.9582C31.3493 33.2103 30.7664 32.604 30.0472 32.604C29.3281 32.604 28.7451 33.2103 28.7451 33.9582C28.7451 34.7061 29.3281 35.3124 30.0472 35.3124Z" fill="#415A6B"/>
<path d="M23.0365 22.2915H6.10938V38.1248H23.0365V22.2915Z" fill="#415A6B"/>
<path d="M21.5346 23.854H7.6123V36.5623H21.5346V23.854Z" fill="#8AD7F8"/>
<path d="M14.9243 25.8335C14.724 25.6252 14.2231 25.6252 14.0228 25.8335L9.11506 30.9377C8.91477 31.146 8.91477 31.6669 9.11506 31.8752C9.31535 32.0835 9.81621 32.0835 10.0165 31.8752L14.9244 26.771C15.2248 26.4585 15.2248 26.0419 14.9243 25.8335Z" fill="#55C0EB"/>
<path d="M16.0258 28.8545C15.8255 28.6462 15.3246 28.6462 15.1244 28.8545L12.0194 32.0836C11.8191 32.2919 11.8191 32.8128 12.0194 33.0211C12.2196 33.2294 12.7205 33.2294 12.9208 33.0211L16.0258 29.7919C16.3263 29.4795 16.3263 29.0628 16.0258 28.8545Z" fill="#55C0EB"/>
</g>
<defs>
<clipPath id="clip0_931_145">
<rect width="48.0769" height="50" fill="white"/>
</clipPath>
</defs>
</svg>
