<svg width="70" height="70" viewBox="0 0 70 70" fill="none" xmlns="http://www.w3.org/2000/svg">
<path d="M42.6504 42.7677C43.0939 43.7101 43.3849 44.7079 43.6621 45.7057C43.9947 46.8837 44.3412 48.0617 44.6738 49.2397C45.242 51.2492 45.8102 53.4389 45.0202 55.3652C44.5629 56.4739 43.7175 57.3609 42.8306 58.1785C41.8605 59.0655 40.8349 59.897 39.754 60.6592C38.8116 61.3244 37.8137 61.9342 36.7051 62.2668C35.5132 62.6133 34.2521 62.6133 33.0048 62.5856C32.201 62.5717 31.3695 62.544 30.6488 62.1837C30.0529 61.8926 29.5817 61.3799 29.2075 60.8255C27.8355 58.7744 27.7939 56.1413 27.7939 53.6745C27.8078 49.8911 27.8217 46.1076 27.8217 42.3104C27.8217 41.6174 27.8217 40.9107 28.0018 40.2316C28.5562 38.1666 30.6765 36.8778 32.7831 36.5036C33.6146 36.3512 34.4877 36.3096 35.3192 36.4898C36.0953 36.6561 36.8159 37.0302 37.5089 37.4321C39.6569 38.721 41.5833 40.5088 42.6504 42.7677Z" fill="#E6E9EE"/>
<path d="M34.9999 24.6543C32.1173 24.6543 29.7891 30.2948 29.7891 33.9534C29.7891 36.0877 30.5929 38.0002 31.8401 39.2059C31.9926 39.192 32.2282 39.1643 32.2836 39.1643C32.5192 39.1643 32.7825 39.192 33.0043 39.2613C33.226 39.3306 33.4616 39.4138 33.6695 39.5246C33.7111 39.5523 33.8496 39.6355 33.9467 39.7048C33.9882 39.7186 34.0298 39.7464 34.0852 39.7741C34.2377 39.8434 34.3624 39.9265 34.501 40.0235C34.6119 40.1067 34.7089 40.176 34.8197 40.2453C34.889 40.2868 34.9445 40.3284 34.9999 40.37H35.0138C35.1524 40.2453 35.3602 40.1344 35.5127 40.0374C35.6097 39.982 35.6928 39.9265 35.8037 39.8849C35.9423 39.8295 36.0255 39.7741 36.0947 39.7464C36.1502 39.6355 36.7738 39.4276 36.8154 39.4138C37.1896 39.289 37.536 39.3167 37.9241 39.3722C37.9379 39.3722 37.9518 39.3722 37.9657 39.386C39.3377 38.1942 40.2385 36.1985 40.2385 33.9396C40.2108 30.3086 37.8825 24.6543 34.9999 24.6543Z" fill="#F9B54C"/>
<path d="M19.7282 65.2879C19.7975 65.6898 19.8391 66.1055 19.8806 66.5629C16.9842 65.177 14.3095 63.4031 11.9258 61.2966C13.2562 45.8719 15.9171 41.5342 15.9171 41.5342C15.9171 41.5342 15.9171 41.5342 15.9309 41.5619L21.1556 50.0157L19.0353 63.0151C19.0353 63.0151 19.0353 63.0151 19.0353 63.0289C19.354 63.5971 19.5758 64.3732 19.7282 65.2879Z" fill="#324A5E"/>
<path d="M36.3722 69.9583C35.9148 69.9721 35.4575 69.986 35.0002 69.986C34.5428 69.986 34.0855 69.9721 33.6281 69.9583C28.7776 69.7781 24.1904 68.6001 20.0467 66.6322C19.9497 66.1333 19.8388 65.6898 19.7279 65.2879C19.3815 63.9713 19.0766 63.126 19.035 63.0151V63.0012C20.0467 51.9975 16.1524 42.0885 15.9445 41.5481C15.9445 41.5342 15.9307 41.5203 15.9307 41.5203C17.0255 40.2453 22.1532 38.9981 25.41 38.3051C27.0176 37.9725 28.1817 37.7646 28.1817 37.7646L28.0986 39.5386L28.154 39.8296L29.2488 46.7866C29.2488 46.7866 32.0067 53.3556 34.1271 58.8159C34.1271 58.8298 34.1409 58.8436 34.1409 58.8436C34.4458 59.6613 34.7507 60.4512 35.0279 61.1996C35.0556 61.2689 35.0694 61.3382 35.0972 61.4075C35.1942 61.6985 35.305 61.9896 35.4021 62.2667C35.4298 62.3499 35.4575 62.4192 35.4852 62.5023C35.5406 62.6686 35.6099 62.8349 35.6515 63.0012C35.901 63.708 36.0673 64.6781 36.192 65.8284C36.2751 66.5768 36.3167 67.4221 36.3583 68.3091C36.3583 68.8496 36.3722 69.3901 36.3722 69.9583Z" fill="#2B3B4E"/>
<path d="M29.3314 34.8682C29.3314 34.8682 32.9901 58.4417 35.6371 63.0151C35.6371 63.0151 27.9733 58.5526 24.966 44.1119L27.2249 43.3358L23.9404 40.6056C23.9404 40.6056 25.6589 36.9054 29.3314 34.8682Z" fill="#324A5E"/>
<path d="M34.9999 40.37C34.9999 40.37 31.2304 37.7923 29.5119 42.6151C29.5119 42.6151 28.6665 34.4247 29.8861 32.9141C29.8861 32.9279 31.1056 37.0994 34.9999 40.37Z" fill="white"/>
<path d="M50.9788 63.0153L48.8584 50.002L54.0831 41.5482C54.0831 41.5344 54.097 41.5205 54.097 41.5205C54.097 41.5205 56.7578 45.8583 58.0883 61.2829C55.7046 63.3756 53.0299 65.1495 50.1334 66.5492C50.175 66.1057 50.2165 65.6761 50.2858 65.2742C50.4244 64.3734 50.6462 63.5973 50.9788 63.0153Z" fill="#2B3B4E"/>
<path d="M54.0692 41.5618C53.8614 42.1023 49.9671 52.0113 50.9788 63.015C50.9788 63.015 50.9788 63.015 50.9788 63.0289C50.9372 63.1397 50.6184 63.9713 50.2858 65.3017C50.1888 65.7036 50.0779 66.1609 49.9671 66.646C45.8233 68.6139 41.2361 69.778 36.3856 69.9721C35.9283 69.9859 35.4709 69.9998 35.0136 69.9998C34.5563 69.9998 34.0989 69.9859 33.6416 69.9721C33.6693 67.0202 33.8772 64.4702 34.3761 63.0289C34.4177 62.8903 34.4731 62.7517 34.5286 62.6131C34.5563 62.5161 34.5978 62.4052 34.6394 62.3082C34.7364 62.0311 34.8334 61.7539 34.9443 61.449C34.972 61.3797 34.9997 61.3104 35.0275 61.2411C35.3046 60.4927 35.6095 59.6889 35.9144 58.8713C35.9144 58.8713 35.9144 58.8713 35.9144 58.8574C38.0209 53.3833 40.7927 46.8281 40.7927 46.8281L41.6935 41.1461L41.9429 39.5801L41.8598 37.8062C41.8598 37.8062 43.0239 38.014 44.6454 38.3466C47.916 39.0396 53.016 40.2868 54.1247 41.5618C54.0831 41.5341 54.0831 41.548 54.0692 41.5618Z" fill="#324A5E"/>
<path d="M40.668 34.8682C40.668 34.8682 37.0093 58.4417 34.3623 63.0151C34.3623 63.0151 42.0261 58.5526 45.0335 44.1119L42.7745 43.3358L46.059 40.6056C46.059 40.6056 44.3405 36.9054 40.668 34.8682Z" fill="#2B3B4E"/>
<path d="M35 40.37C35 40.37 38.7695 37.7923 40.488 42.6151C40.488 42.6151 41.3334 34.4247 40.1138 32.9141C40.1138 32.9279 38.8943 37.0994 35 40.37Z" fill="white"/>
<path d="M36.8015 68.4062C37.5516 68.4062 38.1597 67.7982 38.1597 67.0481C38.1597 66.298 37.5516 65.6899 36.8015 65.6899C36.0514 65.6899 35.4434 66.298 35.4434 67.0481C35.4434 67.7982 36.0514 68.4062 36.8015 68.4062Z" fill="#2B3B4E"/>
<path d="M45.3243 22.6865C44.6175 24.4327 42.8852 26.2759 41.8042 25.9572C40.7232 25.6384 40.7094 23.2963 41.43 21.5501C42.1368 19.8039 43.3148 19.3328 44.3819 19.6376C45.4629 19.9564 46.0449 20.9404 45.3243 22.6865Z" fill="#F9B54C"/>
<path d="M24.6751 22.6865C25.3819 24.4327 27.1142 26.2759 28.1952 25.9572C29.2762 25.6384 29.29 23.2963 28.5694 21.5501C27.8626 19.8039 26.6846 19.3328 25.6175 19.6376C24.5365 19.9564 23.9544 20.9404 24.6751 22.6865Z" fill="#F9B54C"/>
<path d="M34.9999 33.6487C39.6382 33.6487 43.3982 28.778 43.3982 22.7697C43.3982 16.7613 39.6382 11.8906 34.9999 11.8906C30.3616 11.8906 26.6016 16.7613 26.6016 22.7697C26.6016 28.778 30.3616 33.6487 34.9999 33.6487Z" fill="#FFD05B"/>
<path d="M39.3236 19.4574L37.7021 12.9161C37.7021 12.9161 39.8364 10.3661 40.4184 10.4493C40.9866 10.5324 44.2296 13.9694 44.2296 13.9694V18.8476V20.8571L43.3426 22.6449L39.8502 21.1204L39.3236 19.4574Z" fill="#FFD05B"/>
<path d="M33.0179 13.637L27.7516 12.6392L25.9777 14.3992L25.6729 18.2658L26.6845 22.5204L33.4337 20.691L33.0179 13.637Z" fill="#FFD05B"/>
<path d="M33.6418 7.31759C33.6418 7.31759 36.3304 2.82739 41.3611 7.31759C41.3611 7.31759 39.9752 7.10971 39.31 7.31759C39.31 7.31759 47.6945 7.8858 45.5187 17.5314C45.5187 17.5314 45.6019 20.1784 43.3429 22.6591C43.3429 22.6591 45.9483 11.5861 39.1022 14.2746C39.1022 14.2746 34.6535 16.783 31.466 14.1638C31.466 14.1638 25.3405 12.3899 26.6848 22.5067C26.6848 22.5067 19.5615 9.70128 27.4332 8.07982C27.4332 8.07982 29.4843 3.63119 36.9956 4.79532C36.9956 4.79532 34.3625 4.79532 33.6418 7.31759Z" fill="#324A5E"/>
</svg>
