<svg width="998" height="323" viewBox="0 0 998 323" fill="none" xmlns="http://www.w3.org/2000/svg">
<path fill-rule="evenodd" clip-rule="evenodd" d="M265 280C334.036 280 390 224.036 390 155C390 85.9644 334.036 30 265 30C195.964 30 140 85.9644 140 155C140 165.828 141.377 176.334 143.965 186.354C145.435 181.534 146.692 175.864 147.697 169.296L147.703 169.254L147.71 169.213C148.861 162.09 149.441 154.76 149.441 147.218C149.441 142.736 149.225 137.314 148.774 130.917C148.603 128.92 148.512 126.99 148.512 125.138C148.512 112.722 155.348 101.681 165.702 92.0726C168.197 89.6678 170.687 87.5546 173.122 85.9777C175.315 84.5572 178.738 82.7148 182.8 82.7148C183.435 82.7148 184.052 82.7559 184.649 82.834C204.42 60.8354 233.094 47 265 47C324.647 47 373 95.3532 373 155C373 214.647 324.647 263 265 263C227.517 263 194.494 243.905 175.128 214.912C172.05 219.436 168.605 223.806 164.804 228.026C164.572 228.288 164.339 228.548 164.105 228.807C186.85 259.846 223.571 280 265 280ZM148.818 201.207C151.462 207.849 154.659 214.21 158.352 220.235C162.565 215.442 166.255 210.475 169.422 205.334C163.54 194.189 159.551 181.891 157.882 168.867C157.786 169.516 157.686 170.163 157.582 170.809C156.42 178.401 154.909 185.064 153.05 190.797C151.823 194.744 150.412 198.214 148.818 201.207ZM265 255C229.002 255 197.447 235.98 179.837 207.44C186.734 195.778 192.037 182.063 195.88 166.46L195.891 166.416L195.901 166.372C199.19 152.476 200.818 137.988 200.818 122.93C200.818 112.638 200.158 104.029 198.479 97.7035C197.65 94.5781 196.364 91.1791 194.131 88.3747C193.575 87.6759 192.948 87.0047 192.254 86.3841C210.488 67.0606 236.335 55 265 55C320.228 55 365 99.7715 365 155C365 210.228 320.228 255 265 255ZM190.818 122.93C190.818 106.929 189.132 97.2839 185.759 93.993C172.742 110.875 165 132.034 165 155C165 169.988 168.298 184.207 174.207 196.969C179.116 187.482 183.104 176.515 186.17 164.068C189.269 150.975 190.818 137.262 190.818 122.93ZM158.512 125.138C158.512 116.715 163.09 108.217 172.247 99.6426C165.974 110.131 161.429 121.772 159.007 134.172C158.929 132.866 158.842 131.52 158.744 130.135C158.589 128.353 158.512 126.687 158.512 125.138ZM264.498 140.229H249.443V147.848V156.018V163.27H264.498C268.476 163.27 271.872 163.882 274.688 165.105C277.564 166.329 279.736 168.288 281.205 170.98C282.735 173.673 283.5 177.284 283.5 181.812C283.5 184.811 282.796 187.535 281.389 189.982C279.981 192.43 277.931 194.389 275.238 195.857C272.607 197.265 269.394 197.969 265.6 197.969C262.54 197.969 259.694 197.296 257.062 195.949C254.431 194.603 252.32 192.798 250.729 190.533C249.199 188.208 248.434 185.637 248.434 182.822H217.406C217.406 189.676 218.783 195.582 221.537 200.539C224.352 205.435 228.055 209.474 232.645 212.656C237.234 215.777 242.314 218.103 247.883 219.633C253.452 221.102 259.021 221.836 264.59 221.836C271.689 221.836 278.268 220.979 284.326 219.266C290.385 217.491 295.678 214.921 300.207 211.555C304.736 208.189 308.255 204.058 310.764 199.162C313.273 194.266 314.527 188.697 314.527 182.455C314.527 176.886 313.456 171.96 311.314 167.676C309.173 163.331 306.113 159.689 302.135 156.752C299.119 154.525 295.663 152.72 291.767 151.337C294.833 149.893 297.615 148.179 300.115 146.195C303.971 143.135 306.969 139.586 309.111 135.547C311.253 131.508 312.324 127.193 312.324 122.604C312.324 114.281 310.305 107.304 306.266 101.674C302.288 95.9824 296.719 91.6986 289.559 88.8223C282.398 85.8848 274.076 84.416 264.59 84.416C256.634 84.416 249.199 85.8848 242.283 88.8223C235.429 91.6986 229.891 95.86 225.668 101.307C221.507 106.692 219.426 113.179 219.426 120.768H250.453C250.453 118.136 251.188 115.902 252.656 114.066C254.186 112.23 256.114 110.823 258.439 109.844C260.765 108.803 263.152 108.283 265.6 108.283C269.21 108.283 272.178 108.987 274.504 110.395C276.829 111.741 278.543 113.546 279.645 115.811C280.807 118.075 281.389 120.553 281.389 123.246C281.389 126.734 280.777 129.764 279.553 132.334C278.329 134.843 276.462 136.801 273.953 138.209C271.505 139.555 268.354 140.229 264.498 140.229Z" fill="white"/>
<path d="M85.6475 172.436H85.1826C79.2171 184.057 73.0192 194.709 66.5889 204.394C58.9189 215.86 52.4499 224.343 47.1816 229.844C44.3151 232.555 40.7513 234.957 36.4902 237.049C32.2292 239.063 28.5492 240.07 25.4502 240.07C24.6755 240.07 23.6296 239.838 22.3125 239.373C21.0729 238.831 20.0658 238.095 19.291 237.165C15.3398 232.904 12.1634 221.98 9.76172 204.394C7.36003 186.729 6.15918 165.308 6.15918 140.129C6.15918 119.676 7.66992 106.079 10.6914 99.3388C11.931 96.4722 13.7129 94.1093 16.0371 92.2499C18.3613 90.3905 21.8089 88.5699 26.3799 86.788C30.4085 85.161 34.5534 83.8052 38.8145 82.7206C43.153 81.636 46.5618 81.0938 49.041 81.0938C51.2103 81.0938 52.9147 81.636 54.1543 82.7206C55.4714 83.8052 56.1299 85.316 56.1299 87.2528C56.1299 88.0276 55.9749 89.0735 55.665 90.3905C54.0381 97.5956 52.5273 107.745 51.1328 120.838C50.1257 129.515 49.4284 136.565 49.041 141.988C48.6536 147.411 48.305 154.81 47.9951 164.185C47.6852 173.559 47.4915 182.817 47.4141 191.959L47.8789 192.424C51.3652 187.93 55.084 182.546 59.0352 176.271C60.4297 173.946 61.7855 171.777 63.1025 169.763C64.4196 167.748 65.8529 165.385 67.4023 162.674C70.9661 156.321 74.1426 150.123 76.9316 144.08C78.3262 141.291 79.5658 138.463 80.6504 135.597C92.2715 109.72 100.445 94.7291 105.171 90.6229C107.34 88.6861 111.291 86.8655 117.024 85.161C122.835 83.3791 128.026 82.4882 132.597 82.4882C135.541 82.4882 137.981 83.1854 139.918 84.58C141.855 85.897 142.823 87.6789 142.823 89.9257C142.823 91.94 141.777 95.9687 139.686 102.012C135.657 113.71 132.364 126.493 129.808 140.361C127.328 154.229 126.089 166.586 126.089 177.433C126.089 199.513 130.389 210.553 138.988 210.553C141.467 210.553 143.985 208.693 146.542 204.975C149.099 201.256 151.268 196.53 153.05 190.797C154.909 185.064 156.42 178.401 157.582 170.809C158.822 163.139 159.441 155.275 159.441 147.218C159.441 142.414 159.209 136.72 158.744 130.135C158.589 128.353 158.512 126.687 158.512 125.138C158.512 116.616 163.199 108.016 172.573 99.3388C177.144 94.9228 180.553 92.7147 182.8 92.7147C188.146 92.7147 190.818 102.786 190.818 122.93C190.818 137.262 189.269 150.975 186.17 164.068C182.296 179.796 176.951 193.16 170.133 204.161C166.569 210.127 162.308 215.86 157.35 221.36C152.469 226.861 147.627 231.277 142.823 234.608C136.703 238.869 130.195 241 123.3 241C110.594 241 101.142 236.08 94.9443 226.241C88.7464 216.325 85.6475 201.023 85.6475 180.338V172.436Z" fill="white"/>
<path d="M479.398 193.109C473.279 198.923 467.557 203.176 462.232 205.869C456.969 208.501 451.645 209.816 446.26 209.816C439.834 209.816 434.326 208.286 429.736 205.227C425.146 202.167 421.628 197.76 419.18 192.008C416.793 186.255 415.6 179.462 415.6 171.629C415.6 161.898 418.139 151.862 423.219 141.52C428.359 131.116 435.244 121.508 443.873 112.695C452.502 103.883 461.896 96.8451 472.055 91.582C482.214 86.319 492.097 83.6875 501.705 83.6875C517.127 83.6875 524.838 90.4499 524.838 103.975C524.838 109.238 523.4 114.348 520.523 119.305C517.708 124.262 513.945 128.24 509.232 131.238C504.52 134.237 499.533 135.736 494.27 135.736C492.128 135.736 491.057 134.971 491.057 133.441C491.057 133.013 491.424 131.973 492.158 130.32C493.811 127.077 495.065 123.558 495.922 119.764C496.901 114.378 497.391 110.247 497.391 107.371C497.391 102.23 496.779 99.6602 495.555 99.6602C492.678 99.6602 488.639 101.71 483.438 105.811C478.297 109.911 474.074 114.378 470.77 119.213C467.771 123.436 464.986 128.454 462.416 134.268C459.907 140.081 457.918 145.956 456.449 151.893C455.042 157.829 454.338 163.275 454.338 168.232C454.338 172.945 455.348 176.831 457.367 179.891C459.387 182.889 462.018 184.389 465.262 184.389C470.831 184.389 477.104 177.32 484.08 163.184C486.283 159.267 487.752 156.788 488.486 155.748C489.282 154.646 490.383 153.667 491.791 152.811C495.585 150.424 500.359 148.312 506.111 146.477C511.925 144.579 516.423 143.631 519.605 143.631C523.339 143.631 525.205 145.497 525.205 149.23C525.205 149.536 525.021 150.883 524.654 153.27C520.309 171.201 515.046 187.602 508.865 202.473C502.684 217.344 496.687 227.931 490.873 234.234C488.18 237.111 484.202 239.497 478.939 241.395C473.676 243.292 468.291 244.24 462.783 244.24C458.255 244.24 453.634 243.475 448.922 241.945C444.271 240.415 440.446 238.457 437.447 236.07C434.449 233.684 432.949 231.327 432.949 229.002C432.949 227.472 433.806 225.728 435.52 223.77C437.233 221.811 439.559 219.853 442.496 217.895C447.147 214.773 450.238 213.213 451.768 213.213C453.359 213.213 455.592 214.957 458.469 218.445C461.957 222.484 465.66 225.82 469.576 228.451C471.718 223.433 473.768 217.283 475.727 210C477.746 202.717 478.97 197.087 479.398 193.109ZM563.393 182.002L563.025 183.838C563.025 184.878 562.903 186.378 562.658 188.336C562.413 191.335 562.077 193.783 561.648 195.68C561.22 197.577 560.577 199.168 559.721 200.453C558.864 201.677 557.701 202.993 556.232 204.4C551.765 208.501 547.267 210.551 542.738 210.551C539.066 210.551 536.343 209.204 534.568 206.512C532.855 203.819 531.998 199.474 531.998 193.477C531.998 188.703 532.518 182.828 533.559 175.852C534.66 168.814 535.976 162.51 537.506 156.941L538.24 154.555C538.24 154.188 538.424 153.423 538.791 152.26C541.055 143.937 543.136 137.786 545.033 133.809C546.93 129.77 549.225 126.526 551.918 124.078C554.305 122.181 556.997 121.232 559.996 121.232C564.341 121.232 566.973 123.864 567.891 129.127C568.747 128.393 569.574 127.536 570.369 126.557C572.144 124.415 573.521 123.007 574.5 122.334C575.479 121.6 576.611 121.232 577.896 121.232C583.16 121.232 585.791 126.434 585.791 136.838C585.791 142.529 585.179 148.037 583.955 153.361C582.731 158.686 581.171 163.031 579.273 166.396C577.438 169.762 575.602 171.445 573.766 171.445C571.746 171.445 570.736 167.62 570.736 159.971C570.736 155.932 570.492 152.78 570.002 150.516C569.574 148.19 568.87 146.385 567.891 145.1C566.055 148.527 564.861 156.36 564.311 168.6C563.882 175.699 563.576 180.166 563.393 182.002ZM654.455 117.652C663.574 117.652 668.133 118.723 668.133 120.865C668.133 123.313 666.083 124.629 661.982 124.812C657.025 125.118 652.405 126.526 648.121 129.035C643.837 131.544 640.012 134.971 636.646 139.316C633.342 143.661 630.741 148.557 628.844 154.004C627.008 159.451 626.09 165.203 626.09 171.262C626.09 177.932 627.65 183.318 630.771 187.418C633.893 191.457 637.962 193.477 642.98 193.477C647.632 193.477 651.701 191.09 655.189 186.316C658.678 181.543 660.422 175.974 660.422 169.609C660.422 164.408 659.32 159.542 657.117 155.014C654.975 150.424 651.824 146.568 647.662 143.447C645.887 142.04 645 141.03 645 140.418C645 139.561 646.255 138.245 648.764 136.471C651.579 134.574 654.73 132.982 658.219 131.697C661.707 130.412 664.645 129.77 667.031 129.77C669.785 129.77 672.386 130.504 674.834 131.973C677.343 133.38 679.546 135.43 681.443 138.123C683.34 140.755 684.779 143.814 685.758 147.303C686.798 150.73 687.318 154.402 687.318 158.318C687.318 164.805 686.094 171.231 683.646 177.596C681.199 183.899 677.986 189.009 674.008 192.926C668.867 197.883 662.656 201.952 655.373 205.135C648.152 208.256 641.267 209.816 634.719 209.816C628.354 209.816 622.02 208.715 615.717 206.512C609.475 204.309 604.518 201.402 600.846 197.791C595.95 192.895 593.502 185.949 593.502 176.953C593.502 169.854 595.246 162.755 598.734 155.656C602.223 148.557 606.935 142.132 612.871 136.379C618.868 130.565 625.447 126.006 632.607 122.701C639.829 119.335 647.111 117.652 654.455 117.652ZM745.426 121.416C750.077 121.6 753.779 122.946 756.533 125.455C759.287 127.964 760.664 131.33 760.664 135.553C760.664 139.225 759.593 142.927 757.451 146.66C755.37 150.393 752.708 153.453 749.465 155.84C746.283 158.227 743.07 159.42 739.826 159.42C737.929 159.42 736.98 158.747 736.98 157.4C736.98 156.911 737.348 155.84 738.082 154.188C740.469 150.148 741.662 145.497 741.662 140.234C741.662 137.603 741.356 136.287 740.744 136.287C739.887 136.287 738.663 137.389 737.072 139.592C735.481 141.795 734.135 144.396 733.033 147.395C731.136 152.107 729.545 157.125 728.26 162.449C727.036 167.773 726.424 172.271 726.424 175.943C726.424 180.105 727.036 183.379 728.26 185.766C729.545 188.152 731.32 189.346 733.584 189.346C735.665 189.346 738.449 188.244 741.938 186.041C745.426 183.838 748.73 181.115 751.852 177.871C753.137 176.219 754.269 175.393 755.248 175.393C756.717 175.393 757.451 176.219 757.451 177.871C757.451 185.398 754.514 192.222 748.639 198.342C744.6 202.381 739.949 205.655 734.686 208.164C729.484 210.612 724.802 211.836 720.641 211.836C713.358 211.836 707.299 209.541 702.465 204.951C697.63 200.361 695.213 194.578 695.213 187.602C695.213 180.625 696.743 173.312 699.803 165.662C702.924 157.951 707.146 150.638 712.471 143.723C717.856 136.807 723.945 131.024 730.738 126.373C735.634 123.068 740.408 121.416 745.059 121.416H745.426ZM799.127 181.451C801.942 179.554 804.084 177.657 805.553 175.76C808.796 171.782 811.305 167.223 813.08 162.082C814.488 158.716 815.589 154.952 816.385 150.791C817.18 146.63 817.578 142.743 817.578 139.133C817.578 135.767 816.874 134.084 815.467 134.084C813.508 134.084 810.51 138.398 806.471 147.027C804.084 152.229 802.126 157.431 800.596 162.633C799.127 167.773 798.393 172.21 798.393 175.943C798.393 177.229 798.637 179.064 799.127 181.451ZM799.311 184.389C799.984 188.061 802.37 189.896 806.471 189.896C811.061 189.896 817.027 187.204 824.371 181.818C828.655 178.697 831.531 177.137 833 177.137C834.836 177.137 836.549 177.626 838.141 178.605C839.732 179.585 840.527 180.594 840.527 181.635C840.527 182.736 839.64 184.174 837.865 185.949C834.622 189.193 830.889 192.375 826.666 195.496C822.443 198.556 818.374 201.126 814.457 203.207C810.54 205.227 806.624 206.848 802.707 208.072C798.79 209.235 795.302 209.816 792.242 209.816C784.592 209.816 778.473 207.644 773.883 203.299C769.293 198.893 766.998 193.048 766.998 185.766C766.998 180.197 768.191 173.924 770.578 166.947C773.026 159.91 776.3 153.331 780.4 147.211C785.235 140.051 791.171 134.084 798.209 129.311C806.899 123.558 815.222 120.682 823.178 120.682C828.93 120.682 833.428 122.518 836.672 126.189C839.977 129.8 841.629 134.788 841.629 141.152C841.629 146.109 840.313 151.281 837.682 156.666C835.111 162.051 831.286 167.223 826.207 172.18C822.046 176.341 817.945 179.585 813.906 181.91C809.928 184.236 806.44 185.398 803.441 185.398C802.095 185.398 800.718 185.062 799.311 184.389ZM878.807 182.002L878.439 183.838C878.439 184.878 878.317 186.378 878.072 188.336C877.827 191.335 877.491 193.783 877.062 195.68C876.634 197.577 875.992 199.168 875.135 200.453C874.278 201.677 873.115 202.993 871.646 204.4C867.179 208.501 862.681 210.551 858.152 210.551C854.48 210.551 851.757 209.204 849.982 206.512C848.269 203.819 847.412 199.474 847.412 193.477C847.412 188.703 847.932 182.828 848.973 175.852C850.074 168.814 851.39 162.51 852.92 156.941L853.654 154.555C853.654 154.188 853.838 153.423 854.205 152.26C856.469 143.937 858.55 137.786 860.447 133.809C862.344 129.77 864.639 126.526 867.332 124.078C869.719 122.181 872.411 121.232 875.41 121.232C879.755 121.232 882.387 123.864 883.305 129.127C884.161 128.393 884.988 127.536 885.783 126.557C887.558 124.415 888.935 123.007 889.914 122.334C890.893 121.6 892.025 121.232 893.311 121.232C898.574 121.232 901.205 126.434 901.205 136.838C901.205 142.529 900.593 148.037 899.369 153.361C898.145 158.686 896.585 163.031 894.688 166.396C892.852 169.762 891.016 171.445 889.18 171.445C887.16 171.445 886.15 167.62 886.15 159.971C886.15 155.932 885.906 152.78 885.416 150.516C884.988 148.19 884.284 146.385 883.305 145.1C881.469 148.527 880.275 156.36 879.725 168.6C879.296 175.699 878.99 180.166 878.807 182.002ZM967.391 147.027L968.584 143.08C970.175 136.96 972.592 132.248 975.836 128.943C977.917 126.863 980.303 125.149 982.996 123.803C985.689 122.456 988.137 121.783 990.34 121.783C994.379 121.783 996.398 123.497 996.398 126.924C996.398 128.637 995.848 131.299 994.746 134.91C993.645 138.521 992.176 142.621 990.34 147.211C988.565 151.74 986.454 156.727 984.006 162.174C981.619 167.62 978.957 173.22 976.02 178.973C970.695 189.866 965.31 199.076 959.863 206.604C955.947 211.989 951.969 216.762 947.93 220.924C943.891 225.085 939.637 228.818 935.17 232.123C930.764 235.428 926.572 237.906 922.594 239.559C918.677 241.272 915.066 242.129 911.762 242.129C909.008 242.129 907.631 240.936 907.631 238.549C907.631 236.652 908.059 234.387 908.916 231.756C909.773 229.124 910.966 226.646 912.496 224.32C914.148 222.117 916.229 220.159 918.738 218.445C921.921 216.242 926.602 213.733 932.783 210.918C929.111 204.737 926.327 199.841 924.43 196.23C922.533 192.62 920.452 188.122 918.188 182.736C913.169 170.803 910.66 159.971 910.66 150.24C910.66 142.835 911.578 136.807 913.414 132.156C915.066 128.178 918.096 125.363 922.502 123.711C926.051 122.303 929.234 121.6 932.049 121.6C936.027 121.6 938.689 123.13 940.035 126.189C941.443 129.188 942.667 136.257 943.707 147.395C944.809 159.328 946.583 171.109 949.031 182.736C949.46 184.511 949.949 186.959 950.5 190.08H950.867C952.52 186.469 954.325 182.094 956.283 176.953C956.895 175.484 959.037 170.068 962.709 160.705C964.79 155.075 966.35 150.516 967.391 147.027Z" fill="white"/>
</svg>
