<svg width="110" height="63" viewBox="0 0 110 63" fill="none" xmlns="http://www.w3.org/2000/svg">
<g clip-path="url(#clip0_816_14)">
<path d="M91.7409 63H54.5435L59.2986 53.6564C60.0109 52.2568 61.4403 51.3673 63.0106 51.3464L89.0703 50.9994C94.7167 50.5422 96.3826 45.6023 96.5098 43.1895C96.5098 37.8559 92.186 36.0145 90.0241 35.7606H67.8964L74.3821 24.3314H87.1628C91.2831 24.0267 92.3132 20.1408 92.3132 18.2359C92.6184 14.1214 88.6252 13.2198 86.5905 13.2833H82.1745C80.9405 13.2833 80.122 12.0046 80.6385 10.884L85.0644 1.28271C89.0322 1.13032 94.0936 2.23514 96.1283 2.8066C110.626 9.81646 106.238 22.8711 102.232 28.5221C109.252 34.1605 110.244 41.0307 109.863 43.7609C109.1 57.7807 97.4636 62.4285 91.7409 63Z" fill="#92E136"/>
<path d="M28.3289 61.3087L0 8.03357H13.9274C15.5024 8.03357 16.9469 8.90899 17.6757 10.3052L35.5184 44.4881C36.1772 45.7501 36.1566 47.2589 35.4637 48.5025L28.3289 61.3087Z" fill="#183F35"/>
<path d="M50.3154 61.3087L21.9866 8.03357H35.9019C37.4832 8.03357 38.9324 8.916 39.6583 10.3209L58.1376 46.0872L50.3154 61.3087Z" fill="#183F35"/>
<path d="M50.5268 61.3087L80.9698 0H67.1561C65.5219 0 64.0339 0.941806 63.3346 2.41888L42.4595 46.5101L50.5268 61.3087Z" fill="#183F35"/>
</g>
<defs>
<clipPath id="clip0_816_14">
<rect width="110" height="63" fill="white"/>
</clipPath>
</defs>
</svg>
