<svg width="125" height="36" viewBox="0 0 125 36" fill="none" xmlns="http://www.w3.org/2000/svg">
<path d="M10.5132 0.225488C9.92917 0.294868 9.3451 0.312213 8.76103 0.277523C8.17696 0.242833 7.59289 0.208142 7.00883 0.17345C6.42476 0.10407 5.85787 0.052035 5.30816 0.017345C4.7928 -0.017345 4.3118 0 3.86516 0.06938C3.79645 0.728498 3.74491 1.47434 3.71056 2.30691C3.71056 3.13948 3.71056 4.00675 3.71056 4.9087C3.71056 5.81065 3.72773 6.7126 3.76209 7.61455C3.79645 8.48181 3.81363 9.29704 3.81363 10.0602C3.26391 10.0602 2.67985 10.0602 2.06142 10.0602C1.47735 10.0602 0.841746 10.0429 0.154606 10.0082L0 16.3565C0.721497 16.3565 1.37428 16.3565 1.95835 16.3565C2.57677 16.3565 3.16084 16.3392 3.71056 16.3045C3.6762 18.8369 3.69338 21.2999 3.76209 23.6936C3.8308 26.0525 4.08848 28.5676 4.53512 31.2387C4.98176 32.3141 5.70326 33.1641 6.69961 33.7885C7.73032 34.4129 8.89846 34.8812 10.204 35.1934C11.5096 35.5057 12.901 35.7138 14.3784 35.8179C15.8558 35.8873 17.2816 35.8873 18.6558 35.8179C18.8276 35.2975 18.9307 34.7251 18.9651 34.1007C19.0338 33.4763 19.051 32.8518 19.0166 32.2274C18.9822 31.603 18.9307 30.9959 18.862 30.4062C18.7933 29.8164 18.7246 29.2787 18.6558 28.7931C18.0718 28.8278 17.3846 28.8278 16.5944 28.7931C15.8386 28.7584 15.0827 28.6716 14.3269 28.5329C13.571 28.3594 12.8667 28.1339 12.2139 27.8564C11.5611 27.5789 11.063 27.1973 10.7194 26.7116C10.685 25.1506 10.6678 23.4854 10.6678 21.7162C10.6678 19.9123 10.6678 18.0737 10.6678 16.2004H18.6558C18.5871 15.7495 18.57 15.2118 18.6043 14.5873C18.673 13.9282 18.7246 13.2864 18.7589 12.662C18.7933 12.0376 18.7933 11.4652 18.7589 10.9448C18.7246 10.3898 18.5871 9.9735 18.3466 9.69598C16.5944 9.80005 15.1171 9.88677 13.9146 9.95616C12.7464 10.0255 11.6298 10.0776 10.5648 10.1123C10.5648 9.59191 10.5476 9.08889 10.5132 8.60323C10.5132 8.11756 10.5132 7.64924 10.5132 7.19827V0.225488Z" fill="white"/>
<path d="M41.7856 9.90412C40.6862 9.83474 39.707 9.7827 38.8481 9.74801C38.0235 9.71332 37.3192 9.67863 36.7351 9.64394C36.6321 9.64394 36.4431 9.64394 36.1682 9.64394C35.8934 9.64394 35.6185 9.64394 35.3437 9.64394C35.0688 9.60925 34.8111 9.60925 34.5706 9.64394C34.3645 9.64394 34.2614 9.66129 34.2614 9.69598C34.2614 10.1123 34.2099 10.5285 34.1068 10.9448C34.0381 11.3264 34.0209 11.7947 34.0553 12.3498C33.8148 11.7601 33.5228 11.3091 33.1792 10.9969C32.8356 10.65 32.4405 10.4071 31.9939 10.2684C31.5472 10.0949 31.0491 10.0082 30.4993 10.0082C29.984 9.9735 29.4171 9.95616 28.7987 9.95616C27.5962 9.99085 26.4624 10.3204 25.3973 10.9448C24.3323 11.5346 23.4046 12.3671 22.6144 13.4425C21.8586 14.4833 21.2573 15.7321 20.8107 17.1891C20.364 18.6461 20.1407 20.2419 20.1407 21.9764C20.1407 23.364 20.2781 24.873 20.553 26.5035C20.8622 28.1339 21.326 29.643 21.9445 31.0306C22.5629 32.4182 23.3359 33.5803 24.2636 34.517C25.2255 35.4536 26.3765 35.9219 27.7164 35.9219C28.9189 35.9219 30.1386 35.6271 31.3754 35.0373C32.6467 34.4476 33.6945 33.7364 34.5191 32.9039C34.5191 33.2508 34.4848 33.5457 34.416 33.7885C34.3473 34.0313 34.313 34.3435 34.313 34.7251C34.313 35.0027 34.3473 35.2455 34.416 35.4536C34.5191 35.6618 34.6909 35.8005 34.9314 35.8699C35.3093 35.8699 35.6701 35.8526 36.0136 35.8179C36.3916 35.7485 36.7695 35.7138 37.1474 35.7138C37.6971 35.7138 38.2468 35.7485 38.7966 35.8179C39.3806 35.8526 39.9475 35.8699 40.4972 35.8699H41.1157C41.5279 35.8005 41.7341 35.5404 41.7341 35.0894C41.7684 34.6384 41.7856 34.1874 41.7856 33.7364C42.0261 30.0246 42.0777 26.3647 41.9402 22.7569C41.8028 19.1144 41.7856 15.4199 41.8887 11.6733V11.153C41.8887 10.9448 41.8715 10.7367 41.8372 10.5285C41.8372 10.3204 41.82 10.1123 41.7856 9.90412ZM26.7888 20.2592C26.9606 19.392 27.4416 18.6288 28.2318 17.9696C29.0564 17.2758 30.173 16.9289 31.5816 16.9289C32.3031 16.9289 32.8356 16.981 33.1792 17.085C33.5571 17.1891 33.8148 17.4319 33.9522 17.8135C34.124 18.1951 34.2099 18.7502 34.2099 19.4787C34.2443 20.1725 34.2614 21.1265 34.2614 22.3406C34.2614 23.312 34.2443 24.1966 34.2099 24.9945C34.2099 25.7576 34.1068 26.4168 33.9007 26.9718C33.7289 27.4922 33.4197 27.9085 32.973 28.2207C32.5608 28.4982 31.9252 28.637 31.0662 28.637C29.6232 28.637 28.4895 28.0993 27.6649 27.0239C26.8747 25.9138 26.4796 24.5782 26.4796 23.0171C26.4796 22.5661 26.4968 22.1152 26.5311 21.6642C26.5655 21.1785 26.6514 20.7102 26.7888 20.2592Z" fill="white"/>
<path d="M52.3806 12.61C52.3462 12.1243 52.3291 11.6907 52.3291 11.3091C52.3634 10.9275 52.3462 10.4418 52.2775 9.85208C52.2775 9.74801 52.1401 9.69598 51.8652 9.69598C51.5904 9.66129 51.2812 9.66129 50.9376 9.69598C50.594 9.73067 50.2505 9.7827 49.9069 9.85208C49.5633 9.88677 49.3228 9.90412 49.1854 9.90412C48.7731 9.93881 48.4295 9.9735 48.1547 10.0082C47.8798 10.0082 47.6221 10.0082 47.3816 10.0082C47.1411 10.0082 46.8835 10.0082 46.6086 10.0082C46.3338 9.9735 45.9902 9.93881 45.5779 9.90412C45.4405 14.4833 45.4061 18.9063 45.4748 23.1732C45.5779 27.4401 45.6294 31.7071 45.6294 35.974C46.454 35.9046 47.1411 35.8873 47.6909 35.9219C48.2406 35.9566 48.7387 35.974 49.1854 35.974C49.632 36.0087 50.0615 36.0087 50.4738 35.974C50.9204 35.9393 51.4358 35.8352 52.0198 35.6618V35.4536C52.1573 34.3088 52.226 33.1641 52.226 32.0193C52.226 30.8745 52.1916 29.7297 52.1229 28.5849C52.0886 27.4054 52.0542 26.2433 52.0198 25.0985C51.9855 23.9191 52.0027 22.7222 52.0714 21.5081C52.1401 20.5714 52.3806 19.8776 52.7929 19.4266C53.2052 18.941 53.669 18.6288 54.1843 18.49C54.6997 18.3165 55.215 18.2819 55.7304 18.3859C56.2801 18.4553 56.6924 18.5594 56.9672 18.6981C57.0016 18.7328 57.036 18.7502 57.0703 18.7502C57.1047 18.7502 57.139 18.7675 57.1734 18.8022C57.4482 19.0104 57.6544 19.3052 57.7918 19.6868C57.9636 20.0684 58.0838 20.502 58.1526 20.9877C58.2556 21.4734 58.3243 21.9764 58.3587 22.4967C58.3931 22.9824 58.4274 23.4334 58.4618 23.8497C58.5305 24.7863 58.5648 25.7923 58.5648 26.8677C58.5992 27.9431 58.5992 29.0185 58.5648 30.094C58.5648 31.1694 58.5648 32.2101 58.5648 33.2161C58.5648 34.2221 58.5992 35.1241 58.6679 35.9219C59.8704 35.9219 60.9355 35.9219 61.8631 35.9219C62.8251 35.9566 63.9074 35.8873 65.1098 35.7138C65.0411 34.5343 65.024 33.1641 65.0583 31.603C65.0927 30.0419 65.127 28.4288 65.1614 26.7637C65.1957 25.0638 65.2129 23.3987 65.2129 21.7682C65.2473 20.1031 65.2301 18.5767 65.1614 17.1891C65.127 15.8015 65.0068 14.622 64.8006 13.6507C64.6289 12.6447 64.3712 11.9855 64.0276 11.6733C63.3061 11.0489 62.4987 10.6153 61.6054 10.3724C60.7122 10.1296 59.7845 10.0255 58.8225 10.0602C57.8949 10.0949 56.9844 10.2684 56.0911 10.5806C55.1979 10.8928 54.3905 11.3091 53.669 11.8294C53.4972 11.9682 53.2739 12.107 52.999 12.2457C52.7585 12.3845 52.5524 12.5059 52.3806 12.61Z" fill="white"/>
<path d="M89.4962 9.90412C88.3968 9.83474 87.4176 9.7827 86.5587 9.74801C85.7341 9.71332 85.0298 9.67863 84.4457 9.64394C84.3427 9.64394 84.1537 9.64394 83.8788 9.64394C83.604 9.64394 83.3291 9.64394 83.0543 9.64394C82.7794 9.60925 82.5217 9.60925 82.2812 9.64394C82.0751 9.64394 81.972 9.66129 81.972 9.69598C81.972 10.1123 81.9205 10.5285 81.8174 10.9448C81.7487 11.3264 81.7315 11.7947 81.7659 12.3498C81.5254 11.7601 81.2334 11.3091 80.8898 10.9969C80.5462 10.65 80.1511 10.4071 79.7045 10.2684C79.2578 10.0949 78.7596 10.0082 78.2099 10.0082C77.6946 9.9735 77.1277 9.95616 76.5093 9.95616C75.3068 9.99085 74.173 10.3204 73.1079 10.9448C72.0429 11.5346 71.1152 12.3671 70.325 13.4425C69.5692 14.4833 68.9679 15.7321 68.5213 17.1891C68.0746 18.6461 67.8513 20.2419 67.8513 21.9764C67.8513 23.364 67.9887 24.873 68.2636 26.5035C68.5728 28.1339 69.0366 29.643 69.655 31.0306C70.2735 32.4182 71.0465 33.5803 71.9741 34.517C72.9361 35.4536 74.0871 35.9219 75.427 35.9219C76.6295 35.9219 77.8492 35.6271 79.086 35.0373C80.3573 34.4476 81.4051 33.7364 82.2297 32.9039C82.2297 33.2508 82.1953 33.5457 82.1266 33.7885C82.0579 34.0313 82.0236 34.3435 82.0236 34.7251C82.0236 35.0027 82.0579 35.2455 82.1266 35.4536C82.2297 35.6618 82.4015 35.8005 82.642 35.8699C83.0199 35.8699 83.3807 35.8526 83.7242 35.8179C84.1022 35.7485 84.4801 35.7138 84.858 35.7138C85.4077 35.7138 85.9574 35.7485 86.5071 35.8179C87.0912 35.8526 87.6581 35.8699 88.2078 35.8699H88.8262C89.2385 35.8005 89.4447 35.5404 89.4447 35.0894C89.479 34.6384 89.4962 34.1874 89.4962 33.7364C89.7367 30.0246 89.7882 26.3647 89.6508 22.7569C89.5134 19.1144 89.4962 15.4199 89.5993 11.6733V11.153C89.5993 10.9448 89.5821 10.7367 89.5477 10.5285C89.5477 10.3204 89.5306 10.1123 89.4962 9.90412ZM74.4994 20.2592C74.6712 19.392 75.1522 18.6288 75.9424 17.9696C76.7669 17.2758 77.8835 16.9289 79.2922 16.9289C80.0137 16.9289 80.5462 16.981 80.8898 17.085C81.2677 17.1891 81.5254 17.4319 81.6628 17.8135C81.8346 18.1951 81.9205 18.7502 81.9205 19.4787C81.9548 20.1725 81.972 21.1265 81.972 22.3406C81.972 23.312 81.9548 24.1966 81.9205 24.9945C81.9205 25.7576 81.8174 26.4168 81.6113 26.9718C81.4395 27.4922 81.1303 27.9085 80.6836 28.2207C80.2714 28.4982 79.6358 28.637 78.7768 28.637C77.3338 28.637 76.2001 28.0993 75.3755 27.0239C74.5853 25.9138 74.1902 24.5782 74.1902 23.0171C74.1902 22.5661 74.2073 22.1152 74.2417 21.6642C74.2761 21.1785 74.362 20.7102 74.4994 20.2592Z" fill="white"/>
<path d="M100.04 12.61C100.005 12.1243 99.9881 11.6907 99.9881 11.3091C100.022 10.9275 100.005 10.4418 99.9366 9.85208C99.9366 9.74801 99.7991 9.69598 99.5243 9.69598C99.2494 9.66129 98.9402 9.66129 98.5966 9.69598C98.2531 9.73067 97.9095 9.7827 97.5659 9.85208C97.2224 9.88677 96.9819 9.90412 96.8444 9.90412C96.4322 9.93881 96.0886 9.9735 95.8137 10.0082C95.5389 10.0082 95.2812 10.0082 95.0407 10.0082C94.8002 10.0082 94.5425 10.0082 94.2677 10.0082C93.9928 9.9735 93.6492 9.93881 93.237 9.90412C93.0995 14.4833 93.0652 18.9063 93.1339 23.1732C93.237 27.4401 93.2885 31.7071 93.2885 35.974C94.1131 35.9046 94.8002 35.8873 95.3499 35.9219C95.8996 35.9566 96.3978 35.974 96.8444 35.974C97.2911 36.0087 97.7205 36.0087 98.1328 35.974C98.5795 35.9393 99.0948 35.8352 99.6789 35.6618V35.4536C99.8163 34.3088 99.885 33.1641 99.885 32.0193C99.885 30.8745 99.8507 29.7297 99.782 28.5849C99.7476 27.4054 99.7132 26.2433 99.6789 25.0985C99.6445 23.9191 99.6617 22.7222 99.7304 21.5081C99.7991 20.5714 100.04 19.8776 100.452 19.4266C100.864 18.941 101.328 18.6288 101.843 18.49C102.359 18.3165 102.874 18.2819 103.389 18.3859C103.939 18.4553 104.351 18.5594 104.626 18.6981C104.661 18.7328 104.695 18.7502 104.729 18.7502C104.764 18.7502 104.798 18.7675 104.832 18.8022C105.107 19.0104 105.313 19.3052 105.451 19.6868C105.623 20.0684 105.743 20.502 105.812 20.9877C105.915 21.4734 105.983 21.9764 106.018 22.4967C106.052 22.9824 106.086 23.4334 106.121 23.8497C106.19 24.7863 106.224 25.7923 106.224 26.8677C106.258 27.9431 106.258 29.0185 106.224 30.094C106.224 31.1694 106.224 32.2101 106.224 33.2161C106.224 34.2221 106.258 35.1241 106.327 35.9219C107.529 35.9219 108.595 35.9219 109.522 35.9219C110.484 35.9566 111.566 35.8873 112.769 35.7138C112.7 34.6731 112.666 33.4763 112.666 32.1233C112.7 30.7357 112.735 29.3134 112.769 27.8564C112.803 26.3647 112.838 24.873 112.872 23.3814C112.906 21.855 112.906 20.4153 112.872 19.0624C113.181 18.8196 113.508 18.6461 113.851 18.542C114.229 18.4033 114.59 18.3339 114.933 18.3339C115.311 18.3339 115.655 18.3686 115.964 18.438C116.273 18.5073 116.531 18.5941 116.737 18.6981C116.771 18.7328 116.806 18.7502 116.84 18.7502C116.875 18.7502 116.909 18.7675 116.943 18.8022C117.218 19.0104 117.424 19.3052 117.562 19.6868C117.733 20.0684 117.854 20.502 117.922 20.9877C118.026 21.4734 118.094 21.9764 118.129 22.4967C118.163 22.9824 118.197 23.4334 118.232 23.8497C118.3 24.7863 118.335 25.7923 118.335 26.8677C118.369 27.9431 118.369 29.0185 118.335 30.094C118.335 31.1694 118.335 32.2101 118.335 33.2161C118.335 34.2221 118.369 35.1241 118.438 35.9219C119.64 35.9219 120.705 35.9219 121.633 35.9219C122.595 35.9566 123.677 35.8873 124.88 35.7138C124.811 34.5343 124.794 33.1641 124.828 31.603C124.863 30.0419 124.897 28.4288 124.931 26.7637C124.966 25.0638 124.983 23.3987 124.983 21.7682C125.017 20.1031 125 18.5767 124.931 17.1891C124.897 15.8015 124.777 14.622 124.571 13.6507C124.399 12.6447 124.141 11.9855 123.797 11.6733C123.076 11.0489 122.269 10.6153 121.375 10.3724C120.482 10.1296 119.554 10.0255 118.592 10.0602C117.665 10.0949 116.754 10.2684 115.861 10.5806C114.968 10.8928 114.16 11.3091 113.439 11.8294C113.267 11.9682 113.061 12.107 112.82 12.2457C112.58 12.3498 112.374 12.4539 112.202 12.5579C112.03 12.1417 111.858 11.8468 111.687 11.6733C110.965 11.0489 110.158 10.6153 109.264 10.3724C108.371 10.1296 107.444 10.0255 106.482 10.0602C105.554 10.0949 104.643 10.2684 103.75 10.5806C102.857 10.8928 102.05 11.3091 101.328 11.8294C101.156 11.9682 100.933 12.107 100.658 12.2457C100.418 12.3845 100.211 12.5059 100.04 12.61Z" fill="white"/>
</svg>
